# xmcd
#
# Track frame offsets:
#	150
#	18916
#	33322
#	48382
#	64770
#	78015
#	98449
#	112440
#	126274
#	138372
#	156366
#	171812
#	182206
#	195064
#
# Disc length: 2823 seconds
#
# Revision: 1
# Processed by: cddbd v1.5.1PL2 Copyright (c) Steve Scherf et al.
# Submitted via: audiograbber 1.83.01
#
DISCID=b10b050e
DTITLE=Diverse Interpreten  - Lieder unserer Welt in Licht und Schatten
DYEAR=1900
DGENRE=
TTITLE0=We Shall Overcome
TTITLE1=Schwarze Engel
TTITLE2=Le Toit De Ma Maison
TTITLE3=Leben das Heisst Glauben
TTITLE4=Mitternacht in Moskau
TTITLE5=Sometimes I Feel Like A Motherless Child
TTITLE6=Amen
TTITLE7=Weiter dreht sich unsere Welt
TTITLE8=Farewell Angelina
TTITLE9=Ou Vont Les Fleurs
TTITLE10=Der unbekannte Soldat
TTITLE11=Exodus
TTITLE12=What Have They Done To The Rain
TTITLE13=Nobody Knows The Trouble Ive Seen
EXTD=Schallplatte
EXTT0=
EXTT1=
EXTT2=
EXTT3=
EXTT4=
EXTT5=
EXTT6=
EXTT7=
EXTT8=
EXTT9=
EXTT10=
EXTT11=
EXTT12=
EXTT13=
PLAYORDER=
